<?xml version="1.0" standalone="no"?>
<!DOCTYPE svg PUBLIC "-//W3C//DTD SVG 20010904//EN"
 "http://www.w3.org/TR/2001/REC-SVG-20010904/DTD/svg10.dtd">
<svg version="1.0" xmlns="http://www.w3.org/2000/svg"
 width="215.000000pt" height="215.000000pt" viewBox="0 0 215.000000 215.000000"
 preserveAspectRatio="xMidYMid meet">
<metadata>
Created by potrace 1.11, written by Peter Selinger 2001-2013
</metadata>
<g transform="translate(0.000000,215.000000) scale(0.100000,-0.100000)"
fill="#000000" stroke="none">
<path d="M0 2116 c0 -32 2 -34 46 -40 79 -10 172 -7 177 7 2 6 -3 24 -11 40
-16 27 -18 27 -114 27 l-98 0 0 -34z"/>
<path d="M262 2143 c-21 -8 -2 -23 31 -23 24 0 28 -3 17 -10 -12 -8 -9 -10 12
-10 15 0 45 -9 67 -21 26 -13 77 -25 141 -32 89 -10 104 -9 129 6 33 19 81 23
81 6 0 -6 -6 -9 -13 -6 -8 3 -20 1 -28 -5 -11 -8 -10 -9 4 -4 19 6 24 -9 6
-19 -6 -4 -8 -13 -5 -20 3 -8 -1 -19 -9 -25 -10 -8 -17 -6 -29 11 -13 19 -18
20 -31 9 -11 -9 -12 -16 -5 -25 8 -10 6 -15 -9 -20 -11 -3 -23 -15 -26 -26 -4
-10 -10 -17 -15 -14 -4 3 -6 -5 -2 -17 3 -14 1 -19 -6 -14 -8 5 -10 2 -6 -8 7
-19 -12 -22 -20 -3 -3 6 -3 2 -1 -9 3 -13 -5 -42 -20 -70 -14 -26 -23 -54 -21
-61 6 -16 -19 -65 -28 -56 -4 4 -4 0 -1 -8 4 -11 -1 -18 -14 -22 -14 -3 -19
-10 -15 -21 3 -9 10 -16 14 -16 9 0 0 -91 -10 -105 -12 -16 7 -55 24 -49 8 3
17 0 21 -5 3 -6 23 -18 42 -26 20 -9 43 -24 50 -35 11 -15 26 -20 61 -20 44 0
48 -3 69 -38 l22 -39 -31 -30 c-34 -35 -32 -67 5 -77 15 -3 26 -17 32 -38 8
-26 17 -34 40 -38 l29 -5 -45 -48 c-32 -33 -54 -47 -72 -47 -15 0 -57 -5 -95
-12 -56 -9 -72 -9 -97 4 -17 8 -29 19 -28 25 2 7 -13 17 -33 23 -19 7 -41 22
-48 33 -8 12 -19 78 -26 146 -13 139 -17 155 -54 194 -14 15 -26 37 -26 48 0
12 -5 17 -10 14 -6 -4 -17 -1 -25 5 -8 6 -19 9 -26 5 -8 -6 -8 -10 2 -16 7 -4
10 -11 6 -15 -4 -4 -15 0 -24 8 -39 33 -45 32 -41 -3 2 -27 -1 -34 -14 -33
-10 1 -16 -2 -13 -6 3 -5 -3 -16 -12 -26 -13 -12 -14 -19 -5 -22 6 -2 12 -10
12 -18 0 -17 12 -18 29 -1 11 10 13 9 8 -5 -4 -11 -2 -17 6 -15 13 2 57 -77
57 -104 0 -10 -20 -29 -45 -43 -25 -15 -45 -29 -45 -32 0 -3 5 -2 10 1 6 3 10
2 10 -2 0 -5 -9 -14 -21 -21 -16 -10 -20 -20 -16 -42 4 -20 2 -30 -9 -34 -11
-4 -15 -17 -12 -43 3 -37 2 -38 -37 -43 -60 -8 -68 -16 -60 -59 9 -47 13 -53
33 -42 9 4 45 11 80 15 l62 7 0 -60 c0 -72 -23 -199 -44 -239 -15 -28 -14 -31
28 -88 23 -33 82 -118 130 -191 48 -72 104 -149 124 -171 l37 -39 145 -7 c80
-4 160 -9 178 -13 31 -5 32 -4 32 31 0 42 15 40 25 -2 5 -27 10 -29 92 -41 69
-10 88 -10 94 0 4 8 24 12 47 11 22 -2 64 6 93 18 30 11 57 20 61 20 4 0 10
-17 13 -38 14 -78 10 -75 84 -67 60 6 182 34 222 50 13 5 23 -4 40 -34 20 -37
27 -41 61 -41 44 0 47 11 24 96 -7 29 -10 58 -5 65 4 7 5 26 2 42 -6 27 -5 29
16 18 17 -10 21 -21 21 -66 l0 -54 60 -22 c64 -23 73 -38 38 -62 -21 -13 -16
-15 72 -16 70 0 90 2 78 10 -39 22 -19 31 55 25 39 -4 78 -3 85 2 9 6 13 43
13 133 0 134 -18 219 -67 327 l-25 55 27 29 28 28 -46 48 c-25 26 -58 64 -73
85 -27 37 -27 38 -9 59 11 11 34 27 52 35 26 11 32 19 32 43 0 17 -3 30 -7 30
-5 0 -16 7 -26 14 -17 13 -16 16 13 44 30 30 39 52 21 52 -6 0 -13 -4 -16 -10
-7 -12 -65 -13 -81 -2 -5 4 -36 42 -68 84 -85 114 -221 230 -324 276 -49 22
-153 128 -145 147 3 8 9 12 14 9 5 -3 6 2 3 10 -3 9 -1 16 5 16 6 0 11 -9 11
-19 0 -10 7 -22 16 -25 20 -8 20 -7 33 24 l10 25 0 -27 1 -28 88 1 c59 1 79 4
62 9 -23 7 -21 10 13 14 6 1 17 -4 22 -10 7 -9 17 -9 35 -3 19 8 22 12 10 19
-10 6 1 10 35 13 28 3 -19 3 -103 2 -90 -2 -150 0 -146 6 4 8 -30 13 -73 12
-7 -1 -13 5 -13 13 0 8 5 14 11 14 6 0 9 7 5 15 -3 8 -1 15 4 15 6 0 10 -7 10
-15 0 -8 5 -15 10 -15 6 0 10 5 10 11 0 5 4 8 9 5 8 -5 305 -20 354 -18 22 1
22 -3 -5 -41 -12 -18 -15 -26 -8 -19 8 6 21 12 30 12 13 0 13 -1 0 -10 -11 -7
-7 -10 18 -10 22 0 32 -5 32 -15 0 -12 10 -14 48 -11 26 3 79 8 117 11 87 8
115 27 34 24 -30 -1 -62 2 -70 7 -20 13 -123 13 -132 0 -5 -6 -6 -1 -2 11 5
18 2 20 -15 16 -29 -8 -26 18 6 46 20 18 28 20 40 10 8 -6 14 -18 14 -25 0
-17 12 -18 29 -1 11 10 13 9 8 -5 -4 -10 -2 -18 3 -18 6 0 10 5 10 12 0 6 7 4
18 -5 10 -10 22 -14 26 -10 6 7 21 9 89 12 l27 1 0 123 0 122 -109 0 c-60 0
-108 2 -106 5 2 3 -29 6 -68 7 -40 1 -123 6 -185 10 -62 5 -119 5 -127 0 -9
-5 -15 -4 -15 3 0 5 -8 10 -19 10 -10 0 -24 6 -30 14 -10 12 -6 14 26 10 36
-4 520 -34 593 -38 33 -1 35 1 38 32 2 17 0 32 -5 33 -17 2 -94 7 -263 18 -96
6 -217 16 -268 22 -51 6 -115 9 -142 7 -27 -3 -48 -2 -46 1 2 3 -24 7 -57 9
-34 2 -66 7 -71 12 -10 10 237 5 287 -6 15 -3 149 -13 298 -23 l270 -16 -3 35
-3 35 -365 28 c-428 33 -441 35 -417 49 10 5 24 7 32 4 15 -5 47 -8 295 -26
80 -6 198 -15 262 -20 64 -6 135 -10 157 -10 40 0 41 1 41 34 0 39 1 39 -165
51 -135 10 -200 17 -205 23 -5 4 76 0 283 -15 74 -5 87 -4 87 9 0 14 -74 16
-649 17 -439 1 -652 -2 -656 -9 -4 -7 2 -9 19 -4 16 4 26 2 26 -5 0 -14 47
-15 55 -1 9 14 25 3 19 -13 -2 -7 -21 -13 -42 -13 -98 -4 -131 -8 -126 -16 3
-4 -1 -8 -10 -8 -8 0 -22 -3 -32 -7 -12 -5 -15 -3 -9 6 6 10 2 11 -15 6 -14
-4 -20 -3 -16 3 10 16 -17 30 -69 36 -198 22 -356 30 -383 19z m858 -39 c49
-4 87 -10 85 -15 -3 -4 -17 -6 -31 -3 -18 3 -23 1 -18 -7 5 -8 3 -9 -6 -4 -17
10 -53 17 -110 20 -66 4 -66 4 -50 15 8 5 21 8 27 5 7 -2 53 -7 103 -11z m209
-17 c-34 -25 -59 -36 -57 -25 2 7 -3 12 -9 11 -7 -2 -13 1 -13 5 0 5 19 9 42
10 23 1 39 1 37 -1z m-559 -67 c-8 -5 -22 -10 -30 -10 -13 0 -13 1 0 10 8 5
22 10 30 10 13 0 13 -1 0 -10z m694 -159 c3 -4 -6 -6 -19 -3 -14 2 -25 6 -25
8 0 8 39 4 44 -5z m-886 -69 c-12 -32 -28 -43 -28 -19 0 14 30 60 36 54 2 -2
-2 -18 -8 -35z m492 28 c-8 -5 -24 -10 -35 -10 -17 0 -17 2 -5 10 8 5 24 10
35 10 17 0 17 -2 5 -10z m374 -21 c-4 -8 1 -9 16 -4 17 5 21 4 15 -6 -6 -9 -3
-11 9 -6 10 4 26 2 36 -3 13 -7 21 -7 25 0 4 6 14 9 23 6 10 -3 95 -8 191 -11
162 -6 258 -21 206 -33 -11 -2 -26 -9 -32 -14 -9 -7 -13 -7 -13 2 0 7 -14 11
-37 10 -21 -1 -40 -1 -43 -1 -3 1 -43 3 -90 6 -47 2 -125 7 -174 11 -64 4 -87
3 -82 -5 5 -7 1 -9 -8 -5 -9 3 -14 9 -12 13 3 4 -11 6 -30 5 -28 -3 -34 0 -34
16 0 10 8 21 18 23 9 3 18 5 20 6 2 0 0 -4 -4 -10z m-280 -58 c36 -20 70 -89
53 -109 -9 -12 -12 -11 -18 5 -7 15 -8 16 -8 1 -1 -23 -31 -50 -47 -44 -8 3
-13 0 -11 -6 1 -6 -4 -13 -12 -16 -9 -3 -11 0 -6 8 5 9 4 11 -4 6 -6 -4 -9
-11 -6 -16 8 -13 -58 -39 -94 -38 -26 1 -34 8 -51 44 -27 55 -19 101 24 143
54 52 114 60 180 22z m314 -10 c11 -7 10 -9 -3 -14 -9 -4 -14 -3 -10 2 3 5 -1
12 -7 14 -7 3 -8 6 -3 6 6 0 16 -3 23 -8z m432 -11 c0 -5 -5 -10 -11 -10 -5 0
-7 5 -4 10 3 6 8 10 11 10 2 0 4 -4 4 -10z m-235 -35 c189 -8 203 -10 228 -20
33 -14 17 -22 -40 -20 -32 1 -119 3 -193 5 -142 2 -162 7 -181 43 -10 19 -10
20 2 10 8 -7 81 -14 184 -18z m-190 -15 c12 -19 -12 -10 -31 11 -19 22 -19 22
3 10 12 -6 25 -16 28 -21z m-954 -21 c-24 -26 -26 -22 -9 16 7 16 15 22 21 16
6 -6 1 -18 -12 -32z m152 -4 c19 -18 27 -36 27 -60 0 -19 -3 -36 -7 -38 -5 -3
-44 12 -88 32 l-80 37 27 27 c36 36 83 36 121 2z m1423 -18 c-9 -15 -12 -15
-14 -2 -2 8 -8 15 -13 15 -6 0 -7 -4 -4 -10 3 -5 2 -10 -3 -10 -22 0 -21 31 0
39 30 11 49 -7 34 -32z m34 -1 c0 -3 -4 -8 -10 -11 -5 -3 -10 -1 -10 4 0 6 5
11 10 11 6 0 10 -2 10 -4z m-22 -33 c-10 -2 -28 -2 -40 0 -13 2 -5 4 17 4 22
1 32 -1 23 -4z m-1535 -43 c42 -19 76 -41 77 -48 0 -8 -9 -27 -20 -42 l-21
-29 -37 17 c-79 37 -92 50 -92 99 0 25 4 43 9 41 4 -1 43 -19 84 -38z m637 32
c0 -14 -56 -72 -63 -65 -4 3 -7 0 -7 -7 0 -7 -3 -10 -7 -6 -4 3 11 24 32 46
41 42 45 45 45 32z m234 -47 c3 -8 1 -15 -4 -15 -6 0 -10 7 -10 15 0 8 2 15 4
15 2 0 6 -7 10 -15z m496 -5 c-13 -9 -13 -10 0 -10 13 0 13 -2 0 -9 -8 -6 -18
-7 -23 -4 -10 6 11 33 27 33 6 0 4 -5 -4 -10z m-370 -10 c0 -5 -13 -10 -30
-10 -16 0 -30 5 -30 10 0 6 14 10 30 10 17 0 30 -4 30 -10z m-490 -59 c0 -37
-36 -51 -126 -51 -52 0 -67 4 -84 22 -11 12 -20 25 -20 29 0 4 30 10 68 14 37
4 72 8 77 10 6 2 27 4 48 4 34 1 37 -1 37 -28z m127 -63 c-3 -7 -5 -2 -5 12 0
14 2 19 5 13 2 -7 2 -19 0 -25z m-447 -5 c0 -5 3 -18 6 -30 5 -20 2 -23 -19
-23 -31 0 -41 13 -32 40 6 19 45 29 45 13z m-543 -9 c-3 -3 -12 -4 -19 -1 -8
3 -5 6 6 6 11 1 17 -2 13 -5z m670 -19 c0 -18 -28 -16 -35 3 -2 7 5 12 16 12
10 0 19 -7 19 -15z m374 -22 c-12 -20 -14 -14 -5 12 4 9 9 14 11 11 3 -2 0
-13 -6 -23z m-1031 7 c0 -5 -5 -10 -11 -10 -5 0 -7 5 -4 10 3 6 8 10 11 10 2
0 4 -4 4 -10z m30 -35 c0 -5 -5 -3 -10 5 -5 8 -10 20 -10 25 0 6 5 3 10 -5 5
-8 10 -19 10 -25z m730 -35 c0 -11 -6 -20 -14 -20 -7 0 -16 9 -19 20 -4 15 0
20 14 20 12 0 19 -7 19 -20z m-215 -9 c3 -5 1 -13 -5 -16 -15 -9 -43 3 -35 15
8 13 32 13 40 1z m423 -37 c-15 -16 -15 -19 0 -43 l16 -26 -27 24 c-33 30 -33
35 -4 49 31 15 34 14 15 -4z m-454 -17 c3 3 6 1 6 -5 0 -13 -19 -15 -44 -6 -9
3 -13 10 -10 15 3 5 13 5 23 -1 10 -5 21 -6 25 -3z m306 3 c0 -5 -8 -10 -17
-10 -15 0 -16 2 -3 10 19 12 20 12 20 0z m-753 -32 c-3 -8 -6 -5 -6 6 -1 11 2
17 5 13 3 -3 4 -12 1 -19z m1087 -74 c-4 -15 -19 -23 -62 -32 -31 -6 -142 -38
-247 -70 -174 -54 -266 -74 -398 -85 -26 -3 -50 -1 -53 4 -3 5 19 9 49 9 86 0
267 37 389 79 62 22 151 51 197 66 47 15 94 33 105 41 24 16 27 14 20 -12z
m44 -89 c-32 -47 -49 -65 -65 -65 -13 0 -23 -6 -23 -13 0 -7 -21 -19 -47 -25
-36 -10 -44 -15 -33 -22 11 -7 0 -10 -35 -11 -27 -1 -63 -2 -78 -3 -28 -2 -47
-19 -47 -43 0 -8 -13 -13 -30 -13 -35 0 -41 19 -7 22 12 0 2 4 -23 7 -43 6
-41 7 80 38 69 18 139 35 155 39 l30 8 -35 6 c-35 7 -35 7 18 15 33 5 52 12
52 21 0 10 -6 11 -26 4 -33 -13 -77 -13 -69 0 4 6 11 8 16 4 5 -3 16 -1 23 5
7 6 30 15 52 21 l39 10 -50 -5 c-56 -4 -68 -7 -109 -24 -16 -6 -36 -9 -43 -7
-8 3 -12 2 -9 -3 5 -7 -36 -20 -150 -46 -95 -22 -158 -43 -162 -54 -3 -9 2
-11 18 -6 14 5 20 3 16 -3 -3 -6 0 -13 6 -15 7 -3 3 -6 -9 -6 -33 -1 -28 -21
5 -22 24 -1 23 -2 -11 -13 -21 -6 -38 -16 -37 -21 1 -12 47 -7 74 7 10 6 21 6
25 2 3 -5 23 -10 44 -11 57 -3 66 -5 72 -21 4 -11 0 -13 -16 -9 -17 5 -20 2
-16 -14 4 -13 0 -19 -13 -19 -10 0 -20 9 -23 20 -4 17 -14 20 -65 20 -33 0
-67 -3 -76 -6 -21 -8 -20 -31 2 -43 16 -10 16 -10 -1 -11 -15 0 -16 -2 -5 -14
7 -8 17 -12 21 -9 5 3 4 -4 -2 -16 -14 -25 -23 -27 -19 -5 2 10 -3 19 -9 21
-10 3 -13 -12 -13 -56 0 -61 16 -85 22 -34 3 28 28 46 28 20 0 -8 7 -20 15
-27 11 -9 15 -9 15 -1 0 7 5 9 10 6 6 -3 14 4 19 17 10 25 14 12 11 -34 -2
-29 28 -52 54 -42 9 4 23 1 32 -6 18 -16 28 -7 44 43 6 20 16 34 21 31 6 -3 5
-12 -3 -21 -6 -8 -11 -28 -10 -44 1 -16 -1 -29 -5 -30 -5 0 -15 -2 -23 -4 -8
-2 -25 -5 -37 -7 -12 -2 -25 -7 -29 -10 -3 -4 -12 -4 -20 -1 -11 4 -14 -7 -14
-48 l0 -54 -98 -2 -97 -1 84 9 c84 9 100 14 89 25 -9 8 -291 -17 -303 -27 -5
-5 6 -9 25 -10 19 -1 27 -3 17 -6 -9 -2 -15 -9 -11 -14 4 -6 56 -8 137 -5 92
3 114 2 72 -4 -33 -4 -99 -8 -148 -9 l-87 -1 20 -20 c11 -11 29 -20 40 -20 11
0 20 -4 20 -10 0 -5 -7 -10 -15 -10 -8 0 -15 -9 -15 -20 0 -16 6 -20 28 -19
15 1 42 -1 60 -5 21 -5 38 -4 47 4 28 24 32 4 4 -21 l-28 -26 -40 20 c-24 12
-46 17 -58 13 -25 -10 -28 -6 -28 34 0 24 -5 35 -15 35 -17 0 -27 -54 -13 -64
5 -3 6 -19 2 -36 l-7 -30 -1 28 c0 15 -5 27 -9 27 -5 0 -7 13 -4 29 2 16 -1
32 -7 35 -7 5 -11 -4 -11 -24 l0 -30 -58 4 c-32 3 -65 0 -73 -5 -11 -7 -11 -9
4 -9 9 0 17 -4 17 -10 0 -5 -9 -10 -20 -10 -11 0 -20 -4 -20 -10 0 -5 6 -10
13 -10 8 0 7 -3 -3 -10 -8 -5 -12 -11 -9 -14 10 -10 129 -23 129 -14 0 4 9 8
21 8 11 0 18 -4 15 -9 -8 -12 27 -8 37 4 6 7 10 6 13 -2 7 -17 65 -5 82 16 7
9 22 17 33 17 18 1 20 -3 14 -35 -4 -20 -8 -37 -8 -38 -1 -1 -72 3 -157 9
-178 11 -194 18 -188 79 2 21 1 36 -3 33 -8 -5 -20 317 -19 509 1 87 -1 161
-4 164 -15 15 -4 22 20 13 33 -13 280 -13 364 0 82 13 135 26 232 57 43 13 82
22 88 18 5 -3 10 -2 10 3 0 10 195 66 264 77 22 3 42 8 45 10 2 3 10 5 18 5 8
0 -3 -25 -29 -65z m-1123 -5 c-3 -5 -12 -10 -18 -10 -7 0 -6 4 3 10 19 12 23
12 15 0z m32 -12 c-3 -8 -6 -5 -6 6 -1 11 2 17 5 13 3 -3 4 -12 1 -19z m37
-47 c15 -28 12 -41 -8 -41 -7 0 -7 3 1 8 8 5 9 13 3 22 -8 12 -10 12 -10 1 0
-11 -3 -11 -14 -1 -15 12 -11 40 5 40 5 0 15 -13 23 -29z m-154 -5 c0 -3 -4
-8 -10 -11 -5 -3 -10 -1 -10 4 0 6 5 11 10 11 6 0 10 -2 10 -4z m-193 -38 c-3
-7 -5 -2 -5 12 0 14 2 19 5 13 2 -7 2 -19 0 -25z m283 -12 c0 -6 -7 -1 -15 10
-8 10 -15 23 -15 28 0 6 7 1 15 -10 8 -10 15 -23 15 -28z m917 38 c-3 -3 -12
-4 -19 -1 -8 3 -5 6 6 6 11 1 17 -2 13 -5z m-729 -11 c-10 -2 -26 -2 -35 0
-10 3 -2 5 17 5 19 0 27 -2 18 -5z m487 -28 c-16 -8 -39 -14 -50 -14 -11 0 -2
6 20 14 52 17 68 17 30 0z m-587 -7 c-3 -7 -13 -15 -24 -17 -16 -3 -17 -1 -5
13 16 19 34 21 29 4z m-28 -77 c-1 -10 -50 53 -50 63 0 6 11 -5 25 -24 14 -19
25 -36 25 -39z m968 60 c23 -14 -6 -61 -37 -60 -24 2 -24 2 -3 6 35 7 26 23
-13 23 -19 0 -35 5 -35 10 0 6 17 10 38 10 27 0 33 3 22 10 -13 9 -13 10 0 10
8 0 21 -4 28 -9z m-1047 -40 c-7 -5 -10 -14 -6 -20 5 -9 11 -9 23 1 15 10 15
10 4 -2 -7 -8 -17 -16 -22 -16 -23 -3 -24 -5 -12 -13 10 -6 9 -11 -4 -22 -11
-8 -15 -9 -11 -2 5 7 -1 21 -13 33 -11 11 -20 26 -20 33 1 6 7 1 14 -12 14
-25 33 -13 22 15 -3 8 -2 12 3 9 5 -3 13 0 16 6 4 5 10 8 13 4 4 -3 0 -10 -7
-14z m109 9 c0 -5 -2 -10 -4 -10 -3 0 -8 5 -11 10 -3 6 -1 10 4 10 6 0 11 -4
11 -10z m623 -17 c-7 -2 -19 -2 -25 0 -7 3 -2 5 12 5 14 0 19 -2 13 -5z m167
-20 c0 -10 -5 -25 -10 -33 -7 -11 -10 -7 -10 18 0 17 5 32 10 32 6 0 10 -8 10
-17z m-91 -25 c10 -26 -3 -48 -27 -48 -12 0 -13 3 -4 12 7 7 12 22 12 35 0 29
8 29 19 1z m-705 -7 c3 -5 -1 -14 -8 -20 -12 -10 -13 -8 -9 8 6 23 9 25 17 12z
m3 -63 c-3 -8 -6 -5 -6 6 -1 11 2 17 5 13 3 -3 4 -12 1 -19z m506 5 c-7 -2
-19 -2 -25 0 -7 3 -2 5 12 5 14 0 19 -2 13 -5z m-613 -28 c0 -12 -19 -12 -23
0 -4 9 -1 12 9 8 7 -3 14 -7 14 -8z m-50 -10 c0 -8 -4 -15 -10 -15 -5 0 -7 7
-4 15 4 8 8 15 10 15 2 0 4 -7 4 -15z m901 -8 c4 -5 5 -17 2 -26 -3 -13 -12
-16 -41 -12 -20 3 -29 6 -19 9 19 4 23 17 7 27 -5 3 -10 11 -10 16 0 11 52 0
61 -14z m-750 -33 c-5 -16 -10 -21 -10 -12 -1 18 10 51 15 45 2 -1 -1 -16 -5
-33z m618 9 c-7 -10 -15 -20 -16 -22 -2 -2 -3 5 -3 17 0 14 6 22 16 22 14 0
15 -3 3 -17z m35 -46 c-8 -4 -19 -5 -24 -2 -16 10 -11 33 8 37 21 5 34 -24 16
-35z m-878 -22 c-3 -8 -2 -15 3 -15 5 0 11 -10 14 -22 6 -23 6 -23 -12 1 -17
22 -19 51 -4 51 3 0 3 -7 -1 -15z m184 5 c0 -5 -5 -10 -11 -10 -5 0 -7 5 -4
10 3 6 8 10 11 10 2 0 4 -4 4 -10z m18 -19 c-1 -23 -4 -26 -14 -17 -6 6 -8 13
-3 14 5 2 9 10 9 18 0 8 2 14 4 14 3 0 4 -13 4 -29z m611 0 c-15 -5 -22 6 -14
19 6 9 10 9 16 -1 5 -8 4 -15 -2 -18z m171 -22 c0 -11 -4 -17 -10 -14 -5 3
-10 13 -10 21 0 8 5 14 10 14 6 0 10 -9 10 -21z m30 -97 c0 -15 -2 -15 -10 -2
-13 20 -13 33 0 25 6 -3 10 -14 10 -23z m-71 -13 c-16 -10 -23 -4 -14 10 3 6
11 8 17 5 6 -4 5 -9 -3 -15z m-44 1 c-3 -5 -14 -10 -23 -10 -15 0 -15 2 -2 10
20 13 33 13 25 0z m-782 -42 c9 -31 2 -33 -11 -3 -6 14 -8 25 -3 25 5 0 11
-10 14 -22z m847 12 c0 -5 -9 -10 -21 -10 -11 0 -17 5 -14 10 3 6 13 10 21 10
8 0 14 -4 14 -10z m130 5 c0 -10 -31 -221 -35 -242 -6 -27 -89 -60 -159 -62
-27 -1 -55 -6 -62 -12 -14 -12 -140 7 -150 23 -9 14 16 28 50 28 28 0 29 1 10
15 -18 14 -18 14 9 15 16 0 26 -4 22 -10 -4 -6 29 -9 86 -7 55 1 93 6 96 12 2
6 17 9 33 7 30 -4 41 10 19 24 -6 4 -8 20 -4 40 5 28 3 34 -12 34 -10 0 -25
-4 -33 -10 -12 -8 -12 -10 3 -16 17 -6 24 -34 9 -34 -5 0 -19 11 -31 24 l-23
25 48 14 49 14 -3 40 c-3 36 -1 41 23 47 14 4 28 13 31 21 6 14 24 21 24 10z
m660 -9 c0 -2 3 -11 6 -20 4 -12 0 -16 -15 -16 -13 0 -26 -10 -33 -25 -13 -30
1 -52 48 -71 23 -10 33 -22 38 -45 10 -52 7 -88 -10 -115 l-17 -25 -27 26
c-24 23 -30 25 -41 12 -10 -10 -23 -12 -49 -6 -19 5 -50 9 -67 9 -26 0 -33 4
-33 19 0 18 3 19 31 9 26 -9 35 -7 57 9 30 23 48 63 39 87 -7 18 -62 22 -73 5
-4 -7 -20 -8 -41 -4 -19 3 -40 2 -46 -3 -8 -6 -35 -1 -77 13 l-64 21 86 22
c48 12 103 22 122 22 19 0 41 6 49 14 39 39 117 80 117 62z m-860 -15 c0 -5
-13 -11 -30 -13 -24 -4 -27 -2 -19 9 13 15 49 18 49 4z m-719 -56 c11 -13 15
-25 10 -33 -7 -11 -9 -11 -13 0 -3 7 -6 17 -6 21 -1 4 -8 15 -17 23 -8 9 -15
23 -15 32 1 14 3 14 12 -3 6 -11 19 -29 29 -40z m392 48 c-7 -2 -21 -2 -30 0
-10 3 -4 5 12 5 17 0 24 -2 18 -5z m397 -15 c0 -4 -7 -8 -15 -8 -8 0 -15 4
-15 8 0 5 7 9 15 9 8 0 15 -4 15 -9z m-150 -18 c0 -11 -4 -20 -8 -20 -4 0 -8
9 -8 20 0 11 4 20 8 20 4 0 8 -9 8 -20z m84 5 c-4 -8 -18 -15 -33 -14 l-26 1
30 13 c17 8 31 14 32 15 1 0 0 -7 -3 -15z m-181 -22 c-7 -2 -19 -2 -25 0 -7 3
-2 5 12 5 14 0 19 -2 13 -5z m287 -8 c0 -8 -7 -15 -15 -15 -16 0 -20 12 -8 23
11 12 23 8 23 -8z m-222 -37 c2 -39 -11 -64 -28 -53 -9 6 -9 9 1 15 7 5 14 18
16 30 3 21 0 22 -62 18 -72 -3 -90 9 -22 15 98 9 93 10 95 -25z m-538 12 c0
-5 -2 -10 -4 -10 -3 0 -8 5 -11 10 -3 6 -1 10 4 10 6 0 11 -4 11 -10z m325 0
c3 -5 1 -10 -4 -10 -6 0 -11 5 -11 10 0 6 2 10 4 10 3 0 8 -4 11 -10z m62 -12
c-3 -8 -6 -5 -6 6 -1 11 2 17 5 13 3 -3 4 -12 1 -19z m-423 3 c3 -5 -1 -11 -9
-14 -9 -4 -12 -1 -8 9 6 16 10 17 17 5z m1210 -31 c42 -16 55 -26 59 -45 4
-24 2 -25 -44 -25 -27 0 -83 -11 -126 -25 -82 -26 -91 -24 -106 19 -3 8 -10 8
-24 0 -16 -10 -22 -9 -32 8 -9 15 -19 18 -37 14 -23 -6 -25 -4 -22 21 3 26 7
28 51 31 41 3 47 1 47 -16 0 -23 32 -47 76 -56 26 -6 36 -2 62 23 18 16 32 38
32 50 0 26 -3 26 64 1z m-1180 -15 c-3 -7 0 -24 6 -37 8 -14 1 -10 -18 12 -16
19 -28 37 -25 40 2 2 8 -2 13 -10 9 -14 14 -7 11 13 -1 5 3 6 8 2 6 -3 8 -12
5 -20z m679 -27 c3 -21 2 -38 -3 -38 -4 0 -10 20 -12 45 -4 52 7 47 15 -7z
m-193 32 c0 -5 -8 -10 -17 -10 -15 0 -16 2 -3 10 19 12 20 12 20 0z m133 3
c-7 -2 -19 -2 -25 0 -7 3 -2 5 12 5 14 0 19 -2 13 -5z m-14 -31 c11 11 11 9 1
-11 -12 -24 -13 -24 -26 -6 -8 10 -14 26 -14 34 1 11 5 9 13 -7 10 -18 15 -20
26 -10z m-469 -2 c0 -5 -7 -10 -15 -10 -8 0 -15 5 -15 10 0 6 7 10 15 10 8 0
15 -4 15 -10z m61 -43 c-7 -7 -12 -5 -17 7 -4 11 -1 21 7 27 17 11 26 -18 10
-34z m119 33 c-8 -5 -19 -10 -25 -10 -5 0 -3 5 5 10 8 5 20 10 25 10 6 0 3 -5
-5 -10z m137 4 c-3 -3 -12 -4 -19 -1 -8 3 -5 6 6 6 11 1 17 -2 13 -5z m-2 -33
c3 -5 1 -12 -4 -15 -5 -3 -11 1 -15 9 -6 16 9 21 19 6z m-318 -7 c-3 -3 -12
-4 -19 -1 -8 3 -5 6 6 6 11 1 17 -2 13 -5z m808 -46 c6 -4 -3 -8 -19 -8 -24 0
-27 2 -16 15 7 9 16 12 19 8 3 -4 11 -11 16 -15z m-61 -51 c-21 -12 -30 -1
-14 18 10 13 15 13 21 3 5 -8 2 -16 -7 -21z"/>
<path d="M1107 1643 c-13 -12 -7 -33 8 -33 8 0 15 9 15 20 0 20 -11 26 -23 13z"/>
<path d="M605 1600 c-3 -5 1 -10 9 -10 9 0 16 5 16 10 0 6 -4 10 -9 10 -6 0
-13 -4 -16 -10z"/>
<path d="M455 861 c-4 -22 -2 -82 4 -133 6 -51 12 -115 14 -143 2 -50 2 -50
42 -57 63 -11 201 -9 232 3 15 7 37 11 48 11 18 -1 20 5 20 76 1 42 3 114 6
160 5 75 4 84 -13 93 -19 10 -208 28 -300 29 -46 0 -46 0 -53 -39z m115 8 c19
-1 27 -3 18 -6 -22 -5 -23 -12 -3 -27 13 -10 13 -16 1 -51 -13 -35 -13 -43 1
-63 8 -13 13 -26 10 -28 -7 -7 -57 48 -57 62 0 16 -9 17 -30 4 -13 -9 -13 -12
3 -21 9 -5 17 -16 17 -24 0 -8 16 -27 35 -42 34 -27 48 -57 22 -47 -19 7 -61
-32 -53 -51 3 -10 -1 -15 -13 -15 -17 0 -20 11 -26 94 -4 51 -4 104 0 116 5
15 4 20 -4 16 -7 -5 -11 7 -11 37 0 50 7 60 35 53 11 -3 36 -6 55 -7z m84 -17
c-17 -2 -22 -10 -20 -34 0 -17 -3 -32 -9 -34 -6 -2 -10 15 -11 39 -1 43 -1 43
30 38 24 -4 26 -6 10 -9z m119 -14 c31 -1 37 -4 31 -17 -4 -9 -9 -46 -12 -83
-4 -71 -20 -89 -42 -47 -9 16 -8 28 3 52 25 55 29 87 12 87 -10 0 -15 -10 -15
-28 0 -16 -6 -37 -14 -48 -14 -19 -15 -19 -22 1 -4 11 -13 24 -21 28 -7 4 -13
17 -13 27 0 12 -7 20 -17 21 -15 0 -15 2 2 9 11 5 31 7 45 4 14 -2 42 -5 63
-6z m-100 -58 c8 -16 12 -29 9 -28 -4 1 -15 -2 -25 -7 -24 -10 -36 3 -17 18 9
7 14 20 12 30 -5 26 5 20 21 -13z m24 -62 c-3 -8 -6 -5 -6 6 -1 11 2 17 5 13
3 -3 4 -12 1 -19z m-12 -55 c-5 -15 -55 -18 -55 -3 0 5 9 14 20 20 11 6 20 21
21 33 1 18 2 16 10 -8 5 -16 7 -36 4 -42z m25 -66 c4 -5 17 -4 29 2 14 8 21 8
21 1 0 -5 7 -10 15 -10 25 0 17 -19 -11 -26 -31 -8 -75 28 -73 60 1 20 1 20 6
1 3 -11 9 -24 13 -28z m77 11 c-3 -8 -6 -5 -6 6 -1 11 2 17 5 13 3 -3 4 -12 1
-19z m-127 2 c0 -5 -4 -10 -10 -10 -5 0 -10 5 -10 10 0 6 5 10 10 10 6 0 10
-4 10 -10z m-68 -25 c-4 -22 -1 -25 27 -25 22 0 31 5 31 16 0 21 32 14 36 -8
2 -16 -7 -18 -67 -18 -73 0 -82 8 -44 42 11 9 21 17 21 18 1 0 -1 -11 -4 -25z"/>
<path d="M551 644 c0 -11 3 -14 6 -6 3 7 2 16 -1 19 -3 4 -6 -2 -5 -13z"/>
<path d="M725 490 c-8 -12 -11 -12 105 -12 78 1 88 -1 55 -8 -22 -5 -84 -9
-137 -9 -65 -1 -98 -5 -98 -12 0 -8 45 -10 150 -8 l151 4 -3 25 c-3 25 -4 25
-110 28 -65 2 -109 -1 -113 -8z"/>
<path d="M559 422 c-1 -4 -1 -10 0 -14 0 -5 -13 -8 -30 -8 -17 0 -28 -4 -24
-10 3 -5 24 -10 45 -10 32 0 39 3 37 20 -1 18 -26 38 -28 22z"/>
<path d="M469 361 c11 -7 11 -9 0 -14 -8 -3 11 -6 41 -8 l55 -2 -45 -6 c-63
-8 -62 -34 3 -41 26 -3 53 -2 60 2 8 5 8 8 1 8 -7 0 -9 11 -6 25 4 23 2 25
-39 27 l-44 1 45 7 c44 7 43 7 -20 8 -40 1 -60 -2 -51 -7z"/>
<path d="M355 970 c-3 -5 -1 -10 4 -10 6 0 11 5 11 10 0 6 -2 10 -4 10 -3 0
-8 -4 -11 -10z"/>
<path d="M653 2143 c20 -2 54 -2 75 0 20 2 3 4 -38 4 -41 0 -58 -2 -37 -4z"/>
<path d="M0 2018 l0 -45 46 -7 c26 -3 89 -6 141 -6 81 0 94 2 89 15 -3 9 0 15
9 15 8 0 15 4 15 9 0 5 -10 7 -22 3 -17 -4 -20 -2 -15 11 9 23 -37 35 -160 43
l-103 7 0 -45z"/>
<path d="M530 2024 c0 -2 7 -10 17 -19 14 -14 14 -18 2 -26 -12 -7 -12 -9 1
-9 19 1 50 24 50 38 0 5 -16 12 -35 14 -19 2 -35 3 -35 2z"/>
<path d="M418 2013 c7 -3 16 -2 19 1 4 3 -2 6 -13 5 -11 0 -14 -3 -6 -6z"/>
<path d="M0 1908 l0 -45 107 -6 c58 -4 132 -7 165 -7 58 0 58 0 58 30 0 19 -5
30 -14 30 -8 0 -16 5 -18 12 -4 12 -10 13 -185 24 l-113 7 0 -45z"/>
<path d="M0 1794 l0 -44 113 -2 c204 -5 223 -4 238 12 47 50 0 66 -213 74
l-138 4 0 -44z"/>
<path d="M0 1690 c0 -31 4 -40 18 -41 9 0 58 -2 108 -5 l91 -5 32 31 c35 36
33 50 -7 48 -15 -1 -75 2 -134 5 l-108 7 0 -40z"/>
<path d="M0 1579 c0 -30 2 -31 35 -27 23 3 36 -1 40 -10 3 -9 16 -4 45 19 22
18 40 36 40 41 0 4 -36 8 -80 8 l-80 0 0 -31z"/>
<path d="M2030 1546 c0 -2 7 -7 16 -10 8 -3 12 -2 9 4 -6 10 -25 14 -25 6z"/>
<path d="M0 1484 c0 -11 8 -14 27 -12 39 4 42 28 4 28 -21 0 -31 -5 -31 -16z"/>
<path d="M342 1493 c-36 -4 -42 -7 -31 -19 9 -11 9 -14 0 -14 -7 0 -9 -5 -6
-10 4 -6 11 -8 16 -5 5 4 9 1 9 -6 0 -8 4 -8 15 1 13 11 14 10 9 -4 -5 -12 -2
-15 10 -10 9 4 14 9 12 12 -3 3 -1 10 4 17 7 8 2 10 -20 7 -19 -3 -30 0 -30 8
0 6 8 9 19 5 10 -3 24 1 31 10 7 8 11 14 9 13 -2 -1 -23 -3 -47 -5z"/>
<path d="M407 1480 c-3 -12 0 -20 8 -20 8 0 11 8 8 20 -3 11 -7 20 -8 20 -1 0
-5 -9 -8 -20z"/>
<path d="M1460 1457 c0 -2 6 -10 14 -16 11 -9 16 -9 22 1 4 7 4 10 -1 6 -4 -4
-14 -3 -22 3 -7 6 -13 9 -13 6z"/>
</g>
</svg>
