<?xml version="1.0" standalone="no"?>
<!DOCTYPE svg PUBLIC "-//W3C//DTD SVG 20010904//EN"
 "http://www.w3.org/TR/2001/REC-SVG-20010904/DTD/svg10.dtd">
<svg version="1.0" xmlns="http://www.w3.org/2000/svg"
 width="260.000000pt" height="260.000000pt" viewBox="0 0 260.000000 260.000000"
 preserveAspectRatio="xMidYMid meet">
<metadata>
Created by potrace 1.11, written by Peter Selinger 2001-2013
</metadata>
<g transform="translate(0.000000,260.000000) scale(0.100000,-0.100000)"
fill="#000000" stroke="none">
<path d="M1190 2565 c-19 -21 -33 -25 -77 -25 -64 0 -179 -27 -210 -49 -12 -9
-29 -32 -37 -52 -20 -49 -39 -64 -56 -44 -11 13 -15 13 -22 3 -6 -10 -10 -10
-19 2 -8 12 -9 10 -4 -7 4 -16 0 -26 -18 -38 -24 -15 -47 -54 -47 -80 0 -8
-14 -34 -30 -59 -33 -48 -62 -121 -53 -130 9 -9 -40 -96 -54 -96 -21 0 -27
-23 -8 -36 17 -13 17 -42 -1 -135 -4 -22 3 -29 63 -65 37 -21 79 -51 93 -66
21 -22 35 -27 85 -30 51 -3 60 -6 64 -23 2 -11 9 -24 17 -28 22 -13 16 -41
-16 -82 -41 -52 -38 -80 10 -86 19 -3 27 -13 36 -44 9 -35 15 -40 42 -43 18
-2 32 -9 32 -16 0 -8 -21 -36 -47 -63 l-48 -50 -112 -13 c-61 -7 -132 -9 -157
-6 -40 6 -46 10 -46 32 0 13 -5 24 -12 24 -6 0 -30 9 -53 20 l-41 20 -13 142
c-6 79 -17 160 -22 182 -14 50 -51 107 -66 101 -8 -2 -13 4 -13 15 0 21 -33
60 -50 60 -5 0 -10 -11 -10 -26 l0 -25 -33 25 c-43 33 -47 33 -40 -7 4 -28 1
-35 -21 -45 -20 -9 -26 -19 -26 -42 0 -31 9 -37 26 -20 7 7 16 5 26 -7 23 -25
65 -112 72 -149 7 -29 4 -33 -31 -50 -21 -11 -42 -29 -48 -41 -5 -12 -20 -27
-33 -33 -24 -11 -26 -28 -8 -71 5 -11 1 -18 -13 -22 -15 -4 -21 -13 -21 -35 0
-17 5 -34 10 -37 23 -14 6 -24 -60 -35 l-70 -12 0 -35 c0 -41 17 -76 32 -67
14 9 181 34 187 28 2 -2 -1 -57 -7 -121 -11 -114 -25 -183 -53 -250 -12 -31
-11 -35 21 -80 19 -27 86 -124 148 -218 122 -181 184 -265 209 -279 18 -10
396 -31 418 -23 9 4 15 19 15 42 0 49 18 44 32 -10 11 -42 14 -45 47 -45 19 0
63 -5 99 -11 51 -9 66 -9 72 1 5 8 33 14 77 15 49 1 83 8 123 27 l55 26 12
-47 c7 -25 13 -57 13 -70 0 -24 1 -24 77 -17 94 9 200 30 249 51 20 8 39 15
43 15 4 0 20 -22 36 -50 28 -47 32 -50 73 -50 49 0 51 6 28 104 -18 77 -11
177 13 169 29 -10 37 -30 34 -86 l-2 -56 42 -20 c23 -11 54 -23 70 -26 34 -9
37 -45 5 -69 -20 -15 -20 -16 -3 -10 21 8 45 8 135 -2 45 -5 53 -3 43 7 -7 7
-13 20 -13 27 0 12 14 14 83 9 46 -4 89 -2 97 3 12 8 15 38 15 177 -1 163 -2
171 -34 263 -18 52 -44 115 -57 139 l-25 45 31 24 c16 13 30 28 30 34 0 5 -31
46 -69 91 -99 115 -102 122 -66 156 17 15 45 33 63 40 25 11 32 19 32 41 0 33
-14 46 -77 70 l-48 19 43 1 c33 0 48 6 67 26 38 41 34 52 -9 33 -13 -6 -40 -9
-59 -5 -27 5 -42 18 -73 64 -95 139 -294 316 -429 381 -49 24 -82 48 -110 82
-22 27 -50 54 -62 60 -28 15 -28 23 -3 58 22 33 38 92 36 144 -1 42 0 43 34
21 15 -9 12 -4 -8 13 -46 40 -42 61 6 32 37 -22 37 -22 18 -1 -10 12 -26 24
-36 27 -18 6 -54 84 -44 94 3 3 34 6 68 6 61 0 62 0 61 26 -2 34 -11 46 -47
65 -29 15 -46 15 -112 -2 -40 -10 -32 14 11 32 21 9 56 14 84 12 58 -4 55 7
-5 16 -31 5 -56 2 -81 -9 -21 -8 -41 -15 -45 -15 -7 0 -70 84 -70 94 0 2 15 7
33 9 24 3 20 4 -16 5 -58 2 -55 11 16 52 54 31 57 37 10 20 -25 -9 -26 -8 -10
4 9 7 17 16 17 19 0 8 -37 -12 -77 -41 -30 -21 -36 -22 -75 -11 -24 7 -67 26
-95 42 -44 24 -63 28 -110 27 -79 -3 -79 -3 -53 25 13 14 21 27 18 30 -2 3
-15 -6 -28 -20z m-51 -61 c9 -3 11 -8 5 -14 -6 -6 -21 -5 -42 2 -60 23 -29 33
37 12z m121 0 c0 -2 -11 -4 -25 -4 -14 0 -25 4 -25 9 0 4 11 6 25 3 14 -2 25
-6 25 -8z m54 0 c17 -6 22 -24 8 -24 -5 0 -17 7 -28 15 -19 15 -8 20 20 9z
m-374 -24 c0 -5 -8 -10 -17 -10 -15 0 -16 2 -3 10 19 12 20 12 20 0z m120 0
c0 -5 -11 -10 -24 -10 -14 0 -28 5 -31 10 -4 6 7 10 24 10 17 0 31 -4 31 -10z
m-110 -29 c0 -9 -54 -31 -74 -31 -6 1 0 10 13 20 24 21 61 27 61 11z m307 -13
c18 -13 33 -26 33 -31 0 -4 -18 5 -40 19 -22 15 -40 28 -40 30 0 9 16 3 47
-18z m-142 -13 c39 -14 38 -14 -65 -14 -101 1 -103 1 -65 14 54 17 82 17 130
0z m-221 -91 c13 -5 9 -11 -16 -28 -65 -44 -81 -86 -64 -166 8 -40 11 -44 25
-36 6 4 8 25 4 53 -6 45 -6 46 18 39 61 -17 110 -17 178 -2 47 11 91 14 124
10 l52 -6 -38 21 c-21 12 -42 19 -47 16 -4 -3 -10 1 -13 7 -3 10 -7 10 -20 0
-9 -8 -22 -12 -29 -10 -7 3 4 13 25 23 47 22 31 37 -21 19 -21 -7 -38 -8 -40
-3 -5 12 -43 11 -62 -1 -13 -9 -13 -11 0 -20 11 -7 3 -10 -30 -10 -43 -1 -44
-1 -25 -17 20 -15 19 -15 -5 -9 -14 3 -34 6 -45 7 -11 0 -14 3 -7 6 6 2 12 9
12 15 0 14 44 54 83 75 24 13 61 18 145 20 l112 3 88 -46 c86 -45 186 -113
210 -142 6 -9 12 -27 12 -41 0 -24 -3 -23 -43 22 -30 34 -53 50 -81 57 -43 10
-98 3 -136 -17 -14 -7 -29 -13 -35 -13 -15 -1 -90 -70 -87 -80 1 -6 -2 -10 -6
-10 -15 0 -35 -106 -28 -143 8 -44 -6 -55 -35 -26 -21 21 -22 21 -36 3 -7 -10
-11 -25 -7 -34 16 -39 15 -46 -10 -48 -20 -1 -27 4 -32 23 -6 24 -23 30 -81
28 -8 -1 -13 13 -13 38 0 51 -20 97 -56 130 -32 28 -121 69 -153 69 -11 0 -23
5 -26 10 -11 17 47 110 103 167 43 43 59 53 87 53 18 0 40 -3 49 -6z m894 -90
c32 -21 27 -36 -5 -18 -16 7 -49 14 -75 14 -49 0 -66 15 -25 23 31 6 78 -2
105 -19z m-18 -34 c11 -7 0 -10 -37 -10 -29 0 -53 5 -53 10 0 13 70 13 90 0z
m-393 -81 c54 -20 113 -95 113 -143 0 -8 -21 -26 -47 -42 -27 -15 -64 -40 -84
-55 -43 -34 -153 -56 -177 -36 -37 30 -54 125 -33 180 30 79 145 128 228 96z
m-724 -134 c-34 -42 -51 -31 -28 19 15 30 20 34 36 25 18 -9 18 -11 -8 -44z
m165 9 c13 -9 30 -30 37 -47 13 -31 10 -83 -5 -92 -10 -6 -200 82 -200 93 0
11 50 58 70 65 22 9 70 -1 98 -19z m672 -82 c0 -19 -62 -92 -90 -107 -28 -15
-30 -14 -30 4 0 11 21 40 48 65 44 43 72 57 72 38z m-776 -48 c53 -26 96 -51
96 -56 0 -4 -12 -27 -27 -49 -23 -35 -30 -39 -52 -34 -49 12 -140 74 -143 98
-5 39 4 87 17 87 7 0 56 -21 109 -46z m415 -17 c11 -15 5 -27 -14 -27 -6 0
-11 9 -12 20 -2 23 10 26 26 7z m-162 -84 l46 -48 -49 -3 c-53 -3 -88 -22 -41
-22 19 0 30 -8 40 -27 21 -42 12 -53 -44 -53 -48 0 -49 1 -49 29 0 17 5 33 10
36 23 14 7 25 -37 25 -44 0 -45 1 -30 18 10 10 17 23 17 29 0 15 58 63 76 63
8 0 36 -21 61 -47z m353 -6 c0 -42 -1 -44 -39 -55 -21 -7 -73 -12 -116 -12
-73 0 -78 1 -106 31 -16 17 -29 35 -29 39 0 5 24 11 53 14 28 3 84 10 122 15
122 15 115 17 115 -32z m172 1 c-7 -7 -12 -26 -12 -42 0 -33 -40 -136 -52
-136 -11 0 -10 38 1 44 5 3 12 32 16 63 5 42 12 63 28 75 24 18 38 15 19 -4z
m-1222 -33 c7 -8 8 -15 2 -15 -5 0 -15 7 -22 15 -7 8 -8 15 -2 15 5 0 15 -7
22 -15z m76 -55 c3 -2 9 1 13 9 17 27 50 -52 61 -145 13 -120 13 -122 -19 -24
-15 47 -41 111 -58 144 -18 33 -29 65 -25 74 4 12 9 6 15 -18 5 -19 11 -37 13
-40z m-129 14 c-16 -9 -32 -13 -35 -9 -9 9 19 25 43 24 16 0 15 -2 -8 -15z
m96 -61 c16 -29 46 -124 68 -215 27 -109 52 -184 75 -226 39 -73 40 -82 49
-567 3 -156 9 -314 14 -351 l8 -68 -28 34 c-16 19 -59 79 -95 134 -144 218
-197 296 -209 306 -9 8 -7 21 11 57 27 55 42 140 48 272 3 51 7 96 10 99 4 3
18 -5 33 -19 15 -13 21 -16 14 -7 -11 15 -11 24 -1 50 8 18 19 40 27 49 7 8
13 25 13 36 0 11 9 28 20 38 29 26 25 63 -15 125 -19 30 -35 64 -35 76 0 29
-35 128 -64 180 -26 46 -24 57 9 52 12 -2 30 -22 48 -55z m785 19 c10 -14 9
-18 -10 -25 -31 -11 -48 -2 -48 28 0 23 3 25 23 20 12 -4 28 -14 35 -23z m176
12 c9 -3 16 -12 16 -20 0 -8 6 -14 14 -14 36 0 37 -87 3 -132 -23 -29 -36 -36
-90 -46 -120 -22 -353 -13 -364 15 -6 16 18 48 26 35 3 -6 82 -13 176 -17 93
-3 172 -7 175 -7 60 -5 81 88 35 156 -24 35 -22 42 9 30z m268 -52 c-6 -15
-18 -60 -27 -101 -9 -41 -21 -83 -26 -94 -10 -18 -13 -18 -45 14 -19 18 -34
38 -34 45 0 7 16 21 35 33 27 15 44 38 67 88 17 38 33 62 35 55 3 -7 0 -25 -5
-40z m-312 -61 c0 -37 -24 -47 -50 -21 -31 31 -26 50 15 50 32 0 35 -3 35 -29z
m-282 -23 c-2 -15 -10 -23 -23 -23 -13 0 -21 8 -23 23 -3 18 1 22 23 22 22 0
26 -4 23 -22z m-541 -110 c-3 -8 -6 -5 -6 6 -1 11 2 17 5 13 3 -3 4 -12 1 -19z
m-123 -16 c0 -13 4 -18 13 -15 7 3 13 -2 13 -10 0 -8 6 -17 13 -20 8 -3 6 -9
-8 -20 -22 -17 -50 -4 -41 18 2 7 -2 12 -11 11 -8 0 -20 7 -27 17 -9 15 -7 21
9 33 24 18 40 13 39 -14z m956 13 c0 -2 -19 -14 -42 -26 -37 -19 -54 -21 -150
-17 -160 7 -153 23 10 23 89 0 144 5 157 12 23 14 25 15 25 8z m-823 -47 c-3
-8 -6 -5 -6 6 -1 11 2 17 5 13 3 -3 4 -12 1 -19z m883 -20 c0 -25 -3 -29 -10
-18 -13 20 -13 50 0 50 6 0 10 -15 10 -32z m155 -16 c-6 -14 -8 -13 -16 7 -7
18 -6 27 3 32 15 10 23 -14 13 -39z m228 -1 c-4 -4 -55 -20 -113 -35 -93 -25
-200 -58 -380 -117 -113 -36 -298 -62 -455 -63 -94 -1 -157 3 -169 10 -14 9
30 13 190 17 230 6 333 23 492 78 48 17 149 50 225 74 77 24 155 53 175 63 37
19 37 19 40 -1 2 -10 0 -23 -5 -26z m-1418 -43 c10 -17 11 -29 5 -33 -13 -8
-32 4 -24 16 3 5 1 8 -4 7 -10 -3 -62 55 -62 70 0 6 6 13 13 15 13 5 49 -32
72 -75z m73 20 c-2 -6 -10 -14 -16 -16 -7 -2 -10 2 -6 12 7 18 28 22 22 4z
m1440 -20 c-14 -18 -37 -54 -52 -80 -17 -30 -36 -48 -53 -53 -15 -3 -32 -12
-37 -19 -6 -7 -31 -19 -56 -26 l-45 -13 53 -13 c30 -7 55 -14 58 -17 2 -2 -3
-20 -11 -40 -12 -30 -20 -37 -44 -37 -32 0 -91 19 -91 29 0 3 -14 6 -32 6 -17
0 -33 6 -35 13 -3 8 12 12 54 14 54 1 53 2 -22 8 -44 3 -85 4 -92 2 -7 -2 -18
-19 -24 -37 -9 -23 -17 -32 -28 -28 -13 5 -13 3 1 -8 16 -13 38 -59 38 -79 0
-5 -8 -11 -17 -13 -12 -3 -8 -5 9 -6 15 0 29 -5 32 -10 8 -12 -39 -23 -69 -15
-19 5 -25 2 -25 -10 0 -9 -7 -16 -15 -16 -8 0 -15 -9 -15 -20 0 -11 -4 -20
-10 -20 -5 0 -10 -4 -10 -9 0 -5 8 -7 18 -4 30 7 45 -38 26 -82 -13 -32 -17
-35 -31 -23 -15 12 -15 11 -2 -10 13 -21 15 -21 27 -5 7 10 18 35 24 56 11 37
37 47 29 11 -2 -10 -4 -40 -5 -67 -1 -51 -1 -51 -73 -62 -50 -8 -63 -23 -38
-41 15 -11 20 -11 30 3 13 17 51 11 40 -7 -3 -6 3 -10 15 -10 16 0 20 5 16 15
-4 10 1 15 15 15 11 0 17 5 14 10 -3 6 -1 10 6 10 6 0 9 -8 6 -20 -3 -11 -1
-23 5 -26 5 -3 8 -14 5 -24 -3 -11 2 -21 10 -24 8 -4 13 -12 10 -19 -3 -8 0
-14 6 -14 7 0 17 -2 22 -3 30 -7 65 3 89 25 34 31 47 25 36 -18 -12 -41 -40
-232 -40 -267 0 -23 -8 -29 -72 -54 -75 -30 -133 -38 -268 -37 -100 1 -120 6
-120 34 -1 12 -7 33 -15 47 -31 54 -7 98 39 70 19 -12 20 -12 7 3 -16 20 -54
22 -70 4 -6 -8 -13 -27 -16 -43 -2 -16 -7 -46 -10 -68 l-6 -39 -52 6 c-29 4
-101 9 -162 12 -177 9 -195 13 -205 41 -17 42 -30 295 -33 626 -3 316 -3 316
18 305 30 -17 274 -21 392 -7 111 13 212 37 398 95 159 49 413 114 449 115
l28 0 -24 -32z m-1564 -51 c26 -34 34 -67 17 -67 -14 0 -71 69 -71 85 0 26 28
16 54 -18z m81 -17 c-3 -5 -10 -10 -16 -10 -5 0 -9 5 -9 10 0 6 7 10 16 10 8
0 12 -4 9 -10z m875 -4 c-17 -16 -286 -56 -412 -61 -159 -6 -161 3 -5 31 119
21 430 44 417 30z m-987 -68 l28 -22 -53 -17 c-55 -17 -83 -15 -91 5 -7 19 4
32 38 44 43 15 48 14 78 -10z m-131 -23 c5 -41 -7 -47 -15 -8 -5 25 -2 43 7
43 2 0 6 -16 8 -35z m228 25 c0 -5 -7 -10 -15 -10 -8 0 -15 5 -15 10 0 6 7 10
15 10 8 0 15 -4 15 -10z m1980 -45 c-12 -14 -11 -16 11 -10 20 5 24 2 25 -20
2 -29 -12 -32 -38 -8 -21 19 -22 29 -5 47 17 19 23 10 7 -9z m170 -47 c0 -9
-34 -28 -52 -28 -7 0 -20 5 -28 10 -12 8 -12 12 -3 18 16 10 83 10 83 0z
m-1030 -71 c0 -42 5 -58 21 -73 21 -19 22 -19 35 1 12 18 21 20 65 15 29 -3
54 -10 56 -16 2 -7 -16 -22 -41 -34 -39 -18 -51 -20 -79 -11 -19 7 -44 22 -56
35 -34 36 -42 136 -11 136 5 0 10 -23 10 -53z m50 -17 c0 -16 -4 -32 -10 -35
-12 -7 -24 39 -16 61 9 23 26 7 26 -26z m185 -120 c3 -6 -3 -23 -14 -39 -12
-16 -19 -36 -16 -43 5 -12 -15 -17 -95 -28 -56 -7 -104 -10 -107 -6 -4 3 1 6
10 6 9 0 14 6 12 13 -2 6 0 28 5 47 l10 35 -5 -37 c-3 -34 -1 -38 18 -38 43 1
98 19 115 37 9 11 23 18 30 16 7 -3 12 5 12 21 0 26 13 35 25 16z m-242 -20
c5 -4 7 -20 5 -36 -3 -27 -6 -29 -43 -26 -43 4 -74 22 -37 22 26 0 28 12 7 30
-8 7 -15 17 -15 22 0 10 70 0 83 -12z m-93 -15 c0 -8 -7 -15 -15 -15 -16 0
-20 12 -8 23 11 12 23 8 23 -8z m357 -101 c4 -10 0 -22 -8 -28 -9 -6 -18 -18
-21 -26 -6 -16 -192 -59 -204 -48 -3 3 -1 21 5 39 6 24 9 28 10 12 1 -12 9
-24 19 -27 22 -7 97 15 122 37 11 9 27 17 36 17 10 0 14 6 11 14 -3 8 -3 17 0
20 11 11 23 6 30 -10z m-294 -28 c-3 -13 3 -36 13 -51 18 -28 18 -28 -4 -16
-23 12 -38 51 -28 76 9 24 24 17 19 -9z m42 -6 c7 -23 -2 -43 -16 -35 -12 8
-12 55 0 55 5 0 12 -9 16 -20z m42 14 c-3 -3 -12 -4 -19 -1 -8 3 -5 6 6 6 11
1 17 -2 13 -5z m213 -73 c0 -14 -18 -23 -30 -16 -6 4 -8 11 -5 16 8 12 35 12
35 0z m637 -61 c10 0 24 5 31 12 9 9 12 7 12 -9 0 -16 5 -19 25 -15 14 2 31 0
38 -6 6 -5 24 -8 40 -6 35 4 49 -22 71 -134 17 -85 15 -102 -9 -102 -17 0 -28
-46 -16 -68 5 -9 18 -24 28 -33 15 -12 18 -25 15 -58 l-4 -43 -22 27 c-18 22
-29 27 -49 23 -24 -5 -27 -2 -27 21 -1 25 -2 24 -40 -19 l-39 -45 -30 29 c-28
27 -32 28 -48 14 -12 -10 -26 -12 -43 -7 -14 4 -51 7 -83 8 l-59 1 3 42 c1 24
-1 57 -5 74 -6 26 -11 30 -39 30 -18 -1 -45 2 -62 6 -27 7 -28 6 -7 -4 12 -6
22 -17 22 -24 0 -7 2 -19 6 -27 4 -11 -10 -15 -68 -20 -41 -3 -113 -19 -162
-36 -50 -17 -91 -31 -92 -31 -1 0 -4 14 -7 30 -7 33 -36 41 -57 15 -10 -12
-10 -18 0 -30 7 -8 19 -15 26 -15 8 0 14 -5 14 -11 0 -6 -10 -10 -22 -9 -49 4
-58 0 -58 -25 0 -13 -8 -29 -18 -34 -16 -8 -20 -3 -34 40 -8 27 -11 52 -7 55
4 2 5 26 2 53 -6 56 8 91 38 91 12 0 30 11 41 25 13 17 29 25 50 25 l31 0 -26
-20 c-14 -11 -31 -20 -39 -21 -7 0 -1 -4 14 -9 15 -4 46 -4 70 0 24 5 64 12
91 15 31 4 47 11 47 21 0 17 -30 18 -84 3 -27 -7 -42 -7 -49 0 -6 6 -9 12 -6
15 2 2 45 6 96 10 68 4 93 3 96 -7 4 -9 8 -8 16 3 7 10 11 11 11 3 0 -7 7 -13
15 -13 16 0 21 15 8 23 -9 4 6 1 35 -9 16 -5 16 -5 0 6 -25 16 -22 27 10 38
21 7 35 6 53 -4 33 -18 84 -17 127 3 47 21 82 52 76 67 -2 6 -8 32 -13 58 l-8
47 27 -19 c16 -11 37 -20 47 -20z m-892 -17 c16 -38 15 -52 -3 -31 -12 16 -27
68 -18 68 3 0 13 -16 21 -37z m37 12 c6 -30 -7 -33 -22 -6 -13 26 -13 31 4 31
7 0 16 -11 18 -25z m218 -365 c0 -5 -4 -10 -10 -10 -5 0 -10 5 -10 10 0 6 5
10 10 10 6 0 10 -4 10 -10z m194 -41 c10 -17 16 -32 13 -35 -8 -9 -202 -52
-257 -57 -55 -6 -55 -6 -25 10 40 21 40 20 24 39 -13 16 -12 17 10 11 14 -3
37 1 55 10 41 21 127 52 146 53 9 0 24 -14 34 -31z m341 -30 c11 -17 2 -18
-30 -4 l-30 13 27 1 c15 1 30 -4 33 -10z m229 -19 c6 0 17 5 22 10 15 15 42 2
50 -22 3 -11 4 -21 2 -23 -8 -8 -128 9 -128 18 0 6 8 19 18 30 15 17 17 17 20
3 2 -9 9 -16 16 -16z m-474 -25 c7 -9 8 -15 2 -15 -5 0 -12 7 -16 15 -3 8 -4
15 -2 15 2 0 9 -7 16 -15z"/>
<path d="M1337 1973 c-12 -11 -8 -23 8 -23 8 0 15 7 15 15 0 16 -12 20 -23 8z"/>
<path d="M736 1941 c-4 -7 -5 -15 -2 -18 9 -9 19 4 14 18 -4 11 -6 11 -12 0z"/>
<path d="M390 1181 c0 -6 4 -13 10 -16 6 -3 7 1 4 9 -7 18 -14 21 -14 7z"/>
<path d="M390 1121 c0 -6 4 -13 10 -16 6 -3 7 1 4 9 -7 18 -14 21 -14 7z"/>
<path d="M346 1107 c3 -10 9 -15 12 -12 3 3 0 11 -7 18 -10 9 -11 8 -5 -6z"/>
<path d="M280 970 c6 -11 13 -20 16 -20 2 0 0 9 -6 20 -6 11 -13 20 -16 20 -2
0 0 -9 6 -20z"/>
<path d="M379 928 c0 -7 -2 -35 -4 -63 l-4 -50 21 43 c24 49 38 54 38 13 0
-43 17 -47 18 -5 1 28 -3 37 -23 46 -14 6 -25 15 -25 20 0 13 -20 9 -21 -4z"/>
<path d="M272 845 c-26 -53 -29 -75 -4 -28 20 38 35 42 42 11 3 -12 9 -18 12
-13 3 6 -2 25 -11 43 l-17 32 -22 -45z"/>
<path d="M468 829 c-6 -17 -48 -22 -48 -6 -1 7 -6 5 -14 -5 -13 -17 -10 -78 3
-78 4 0 6 14 3 30 -4 25 -1 30 17 30 15 0 19 -5 15 -17 -3 -10 4 -3 16 15 13
18 20 35 17 38 -3 3 -7 0 -9 -7z"/>
<path d="M281 783 c0 -12 -4 -30 -7 -40 -5 -17 -5 -17 6 0 6 10 9 28 7 40 -4
22 -4 22 -6 0z"/>
<path d="M357 748 c20 -36 24 -53 15 -56 -6 -2 -12 -13 -11 -25 0 -21 1 -20
10 3 l10 25 19 -22 c15 -19 16 -27 7 -48 -7 -14 -16 -25 -20 -25 -5 0 -5 -4
-2 -10 3 -5 -1 -10 -9 -10 -9 0 -16 -11 -18 -27 -3 -26 -5 -25 -26 21 -26 54
-22 71 8 36 11 -13 20 -18 20 -12 0 15 -36 52 -50 52 -5 0 -10 5 -10 10 0 6 6
10 14 10 8 0 16 7 20 15 6 17 -9 21 -20 4 -3 -6 -14 -9 -24 -6 -16 4 -16 2 -4
-21 7 -14 11 -28 8 -31 -5 -5 -33 31 -52 69 l-12 25 6 -29 c3 -16 14 -41 25
-54 10 -14 19 -29 19 -34 0 -5 4 -14 10 -21 42 -53 73 -87 79 -87 5 0 13 17
19 38 6 20 20 54 31 75 19 38 19 39 0 58 -10 10 -33 43 -50 74 -17 30 -33 55
-36 55 -2 0 8 -23 24 -52z"/>
<path d="M242 760 c0 -14 2 -19 5 -12 2 6 2 18 0 25 -3 6 -5 1 -5 -13z"/>
<path d="M456 537 c3 -10 9 -15 12 -12 3 3 0 11 -7 18 -10 9 -11 8 -5 -6z"/>
<path d="M445 500 c10 -11 20 -20 23 -20 3 0 -3 9 -13 20 -10 11 -20 20 -23
20 -3 0 3 -9 13 -20z"/>
<path d="M1505 1210 c-13 -5 -14 -9 -5 -9 8 0 24 4 35 9 13 5 14 9 5 9 -8 0
-24 -4 -35 -9z"/>
<path d="M1385 1170 c-13 -5 -14 -9 -5 -9 8 0 24 4 35 9 13 5 14 9 5 9 -8 0
-24 -4 -35 -9z"/>
<path d="M1498 1163 c6 -2 18 -2 25 0 6 3 1 5 -13 5 -14 0 -19 -2 -12 -5z"/>
<path d="M1305 1150 l-20 -9 20 0 c11 0 29 4 40 9 l20 9 -20 0 c-11 0 -29 -4
-40 -9z"/>
<path d="M1420 1150 c-20 -6 -21 -8 -5 -8 11 0 31 4 45 8 20 6 21 8 5 8 -11 0
-31 -4 -45 -8z"/>
<path d="M1258 1133 c7 -3 16 -2 19 1 4 3 -2 6 -13 5 -11 0 -14 -3 -6 -6z"/>
<path d="M1115 1100 c-38 -10 -61 -18 -50 -18 11 0 52 8 90 18 39 10 61 18 50
18 -11 0 -51 -8 -90 -18z"/>
<path d="M1238 1098 c-38 -12 -68 -24 -68 -29 0 -4 17 -1 38 6 20 8 60 21 87
29 28 7 41 14 30 14 -11 0 -50 -9 -87 -20z"/>
<path d="M1418 1113 c7 -3 16 -2 19 1 4 3 -2 6 -13 5 -11 0 -14 -3 -6 -6z"/>
<path d="M1350 1100 c-20 -6 -21 -8 -5 -8 11 0 29 3 40 8 25 11 -1 11 -35 0z"/>
<path d="M1286 1081 c-4 -5 3 -7 14 -4 23 6 26 13 6 13 -8 0 -17 -4 -20 -9z"/>
<path d="M628 1069 c24 -4 73 -11 108 -13 36 -3 72 -10 82 -14 25 -13 172 -24
172 -13 0 18 -66 31 -205 41 -170 12 -220 12 -157 -1z"/>
<path d="M563 1054 c-5 -15 -2 -91 13 -302 7 -89 8 -93 33 -100 39 -11 294 -8
313 3 11 7 -36 10 -155 10 l-172 0 -12 190 c-7 105 -10 196 -8 203 6 18 -5 15
-12 -4z"/>
<path d="M1125 1051 c17 -8 16 -10 -12 -10 -17 -1 -35 -6 -38 -11 -4 -7 2 -9
17 -5 12 3 43 9 68 14 27 5 35 9 20 10 -14 1 -36 4 -50 6 -22 5 -22 4 -5 -4z"/>
<path d="M1263 1033 c9 -2 23 -2 30 0 6 3 -1 5 -18 5 -16 0 -22 -2 -12 -5z"/>
<path d="M1218 1023 c7 -3 16 -2 19 1 4 3 -2 6 -13 5 -11 0 -14 -3 -6 -6z"/>
<path d="M1080 993 c-14 -3 -29 -8 -34 -13 -4 -5 11 -4 35 1 67 15 66 24 -1
12z"/>
<path d="M1255 990 c3 -5 8 -10 11 -10 2 0 4 5 4 10 0 6 -5 10 -11 10 -5 0 -7
-4 -4 -10z"/>
<path d="M910 975 c0 -8 2 -15 4 -15 2 0 6 7 10 15 3 8 1 15 -4 15 -6 0 -10
-7 -10 -15z"/>
<path d="M966 919 c-8 -60 -10 -158 -3 -165 3 -3 8 21 11 53 4 32 9 74 11 93
7 54 -11 71 -19 19z"/>
<path d="M720 910 c0 -17 3 -30 8 -30 4 0 7 -14 8 -30 1 -17 -4 -30 -10 -30
-16 0 -76 62 -76 78 0 7 -5 12 -10 12 -21 0 17 -66 51 -88 19 -13 37 -34 40
-47 6 -20 3 -24 -20 -28 -24 -4 -23 -4 5 -6 19 0 34 -8 38 -17 9 -23 7 -31 -4
-14 -11 18 -25 7 -17 -15 7 -17 16 -19 37 -5 12 8 13 13 3 30 -19 29 -16 42
10 38 15 -2 21 -9 19 -20 -2 -11 3 -18 14 -18 11 0 14 5 10 16 -3 9 -6 20 -6
25 0 5 -16 9 -35 9 -32 0 -35 2 -35 29 0 23 5 30 22 33 29 4 35 44 7 51 -11 3
-23 15 -26 26 -9 34 -33 35 -33 1z m60 -54 c0 -3 -4 -8 -10 -11 -5 -3 -10 -1
-10 4 0 6 5 11 10 11 6 0 10 -2 10 -4z"/>
<path d="M1053 910 c1 -11 6 -20 12 -20 6 0 11 9 11 20 0 11 -6 20 -13 20 -6
0 -11 -9 -10 -20z"/>
<path d="M1100 916 c0 -9 5 -16 10 -16 6 0 10 4 10 9 0 6 -4 13 -10 16 -5 3
-10 -1 -10 -9z"/>
<path d="M1168 923 c7 -3 16 -2 19 1 4 3 -2 6 -13 5 -11 0 -14 -3 -6 -6z"/>
<path d="M852 860 c-2 -90 6 -130 28 -130 14 0 19 10 22 41 2 22 0 42 -3 45
-4 2 -10 18 -14 34 -4 17 -10 30 -15 30 -5 0 -10 10 -12 23 -2 12 -5 -7 -6
-43z"/>
<path d="M1276 904 c-4 -9 -4 -19 -1 -22 2 -3 7 3 11 12 4 9 4 19 1 22 -2 3
-7 -3 -11 -12z"/>
<path d="M1180 891 c0 -10 19 -25 25 -20 1 2 -3 10 -11 17 -8 7 -14 8 -14 3z"/>
<path d="M1060 859 c0 -5 14 -9 30 -9 39 0 39 15 0 16 -17 1 -30 -3 -30 -7z"/>
<path d="M1207 770 c6 -101 5 -100 13 -100 8 0 6 59 -3 80 -4 8 -8 33 -10 55
-3 22 -3 6 0 -35z"/>
<path d="M1080 830 c0 -5 5 -10 10 -10 6 0 10 5 10 10 0 6 -4 10 -10 10 -5 0
-10 -4 -10 -10z"/>
<path d="M1130 809 c0 -11 4 -18 9 -15 5 3 11 -4 14 -16 4 -12 9 -19 13 -15 8
8 -15 67 -27 67 -5 0 -9 -9 -9 -21z"/>
<path d="M1171 814 c0 -11 3 -14 6 -6 3 7 2 16 -1 19 -3 4 -6 -2 -5 -13z"/>
<path d="M1052 808 c-16 -16 -15 -28 1 -28 7 0 13 9 13 20 0 11 -1 20 -1 20
-1 0 -6 -5 -13 -12z"/>
<path d="M1096 801 c-4 -7 -5 -15 -2 -18 9 -9 19 4 14 18 -4 11 -6 11 -12 0z"/>
<path d="M1080 750 c0 -5 5 -10 10 -10 6 0 10 5 10 10 0 6 -4 10 -10 10 -5 0
-10 -4 -10 -10z"/>
<path d="M972 715 c0 -16 2 -22 5 -12 2 9 2 23 0 30 -3 6 -5 -1 -5 -18z"/>
<path d="M1160 691 c0 -5 5 -13 10 -16 6 -3 10 -2 10 4 0 5 -4 13 -10 16 -5 3
-10 2 -10 -4z"/>
<path d="M968 593 c12 -2 32 -2 45 0 12 2 2 4 -23 4 -25 0 -35 -2 -22 -4z"/>
<path d="M1053 593 c9 -2 23 -2 30 0 6 3 -1 5 -18 5 -16 0 -22 -2 -12 -5z"/>
<path d="M1118 583 c7 -3 16 -2 19 1 4 3 -2 6 -13 5 -11 0 -14 -3 -6 -6z"/>
<path d="M1098 553 c6 -2 18 -2 25 0 6 3 1 5 -13 5 -14 0 -19 -2 -12 -5z"/>
<path d="M913 543 c9 -2 23 -2 30 0 6 3 -1 5 -18 5 -16 0 -22 -2 -12 -5z"/>
<path d="M998 543 c6 -2 18 -2 25 0 6 3 1 5 -13 5 -14 0 -19 -2 -12 -5z"/>
<path d="M1161 448 c0 -42 2 -79 7 -81 4 -3 6 20 4 51 -5 98 -9 110 -11 30z"/>
<path d="M1323 501 c-29 -24 -29 -30 2 -64 l26 -27 -35 0 c-33 0 -34 -1 -32
-35 1 -28 -2 -35 -17 -35 -10 0 -16 -4 -13 -8 3 -5 28 -4 55 2 37 7 48 13 41
21 -7 9 -2 18 14 30 14 11 23 22 20 26 -2 4 0 10 6 14 5 3 10 11 10 18 0 8 -3
8 -12 -1 -35 -35 -82 11 -53 54 18 29 17 29 -12 5z"/>
<path d="M1043 503 c15 -2 37 -2 50 0 12 2 0 4 -28 4 -27 0 -38 -2 -22 -4z"/>
<path d="M1196 475 c3 -22 8 -47 10 -55 4 -16 64 -44 64 -30 0 4 -11 11 -24
14 -50 12 -46 86 5 86 16 0 29 3 29 8 0 9 -52 8 -67 -1 -6 -4 -14 -1 -17 5 -3
7 -3 -5 0 -27z"/>
<path d="M953 493 c9 -2 23 -2 30 0 6 3 -1 5 -18 5 -16 0 -22 -2 -12 -5z"/>
<path d="M863 483 c9 -2 25 -2 35 0 9 3 1 5 -18 5 -19 0 -27 -2 -17 -5z"/>
<path d="M1063 463 c15 -2 39 -2 55 0 15 2 2 4 -28 4 -30 0 -43 -2 -27 -4z"/>
<path d="M898 453 c17 -2 47 -2 65 0 17 2 3 4 -33 4 -36 0 -50 -2 -32 -4z"/>
<path d="M628 413 c6 -2 18 -2 25 0 6 3 1 5 -13 5 -14 0 -19 -2 -12 -5z"/>
<path d="M993 413 c15 -2 39 -2 55 0 15 2 2 4 -28 4 -30 0 -43 -2 -27 -4z"/>
<path d="M1083 393 c9 -2 23 -2 30 0 6 3 -1 5 -18 5 -16 0 -22 -2 -12 -5z"/>
<path d="M867 330 c-3 -11 -1 -20 4 -20 5 0 9 9 9 20 0 11 -2 20 -4 20 -2 0
-6 -9 -9 -20z"/>
<path d="M1030 341 c0 -6 5 -13 10 -16 6 -3 10 1 10 9 0 9 -4 16 -10 16 -5 0
-10 -4 -10 -9z"/>
<path d="M931 324 c0 -11 3 -14 6 -6 3 7 2 16 -1 19 -3 4 -6 -2 -5 -13z"/>
<path d="M1210 330 c-13 -8 -12 -10 3 -10 9 0 17 5 17 10 0 12 -1 12 -20 0z"/>
<path d="M1400 320 c0 -5 5 -10 10 -10 6 0 10 5 10 10 0 6 -4 10 -10 10 -5 0
-10 -4 -10 -10z"/>
<path d="M1210 286 c0 -9 5 -16 10 -16 6 0 10 4 10 9 0 6 -4 13 -10 16 -5 3
-10 -1 -10 -9z"/>
<path d="M1263 293 c9 -2 23 -2 30 0 6 3 -1 5 -18 5 -16 0 -22 -2 -12 -5z"/>
<path d="M1330 285 c0 -8 5 -15 12 -15 6 0 21 -8 32 -17 12 -10 8 -3 -8 15
-34 37 -36 38 -36 17z"/>
<path d="M605 280 c3 -5 8 -10 11 -10 2 0 4 5 4 10 0 6 -5 10 -11 10 -5 0 -7
-4 -4 -10z"/>
<path d="M665 280 c3 -5 8 -10 11 -10 2 0 4 5 4 10 0 6 -5 10 -11 10 -5 0 -7
-4 -4 -10z"/>
<path d="M1100 276 c0 -9 5 -16 10 -16 6 0 10 4 10 9 0 6 -4 13 -10 16 -5 3
-10 -1 -10 -9z"/>
<path d="M1150 282 c0 -4 9 -13 20 -20 19 -12 20 -11 8 8 -13 20 -28 27 -28
12z"/>
<path d="M728 273 c12 -2 22 -11 22 -18 0 -8 4 -17 10 -20 6 -4 7 2 1 17 -5
14 -17 24 -32 25 -23 1 -23 1 -1 -4z"/>
<path d="M802 243 c-2 -31 -6 -43 -17 -43 -8 0 -15 4 -15 10 0 5 -7 7 -15 4
-14 -6 -13 -8 2 -19 13 -9 23 -10 36 -3 13 7 23 6 30 -1 14 -14 37 -14 37 -1
0 5 -11 12 -24 16 -20 5 -26 14 -29 42 -4 37 -4 37 -5 -5z"/>
<path d="M896 266 c23 -17 14 -28 -25 -30 -16 -1 -27 -4 -25 -7 6 -11 64 -16
70 -7 3 4 15 9 27 9 20 1 20 2 2 6 -11 3 -26 14 -33 24 -7 11 -18 19 -24 19
-7 0 -3 -6 8 -14z"/>
<path d="M1287 265 c-4 -8 -2 -17 3 -20 6 -4 10 3 10 14 0 25 -6 27 -13 6z"/>
<path d="M595 250 c-17 -6 -14 -9 17 -15 20 -4 44 -5 55 -2 11 3 5 5 -14 6
-17 0 -33 5 -35 10 -1 4 -12 5 -23 1z"/>
<path d="M690 230 c0 -16 4 -30 8 -30 5 0 7 14 4 30 -2 17 -6 30 -8 30 -2 0
-4 -13 -4 -30z"/>
<path d="M1126 245 c-3 -9 0 -15 9 -15 8 0 15 7 15 15 0 8 -4 15 -9 15 -5 0
-11 -7 -15 -15z"/>
<path d="M1092 230 c0 -14 2 -19 5 -12 2 6 2 18 0 25 -3 6 -5 1 -5 -13z"/>
<path d="M1400 240 c0 -5 5 -10 10 -10 6 0 10 5 10 10 0 6 -4 10 -10 10 -5 0
-10 -4 -10 -10z"/>
<path d="M1055 223 c16 -16 16 -17 0 -30 -16 -11 -15 -12 13 -10 18 1 32 3 32
4 0 6 -48 53 -54 53 -4 0 0 -8 9 -17z"/>
<path d="M1221 222 c-1 -7 -5 -11 -10 -7 -5 3 -13 0 -17 -6 -5 -9 3 -10 32 -6
21 4 47 7 57 7 9 0 17 4 17 9 0 5 -15 5 -35 1 -23 -5 -36 -4 -39 4 -3 7 -5 6
-5 -2z"/>
<path d="M600 211 c0 -11 25 -21 56 -21 16 0 24 5 23 18 0 10 -3 12 -6 5 -6
-15 -39 -17 -48 -3 -8 12 -25 13 -25 1z"/>
<path d="M1328 213 c6 -2 18 -2 25 0 6 3 1 5 -13 5 -14 0 -19 -2 -12 -5z"/>
<path d="M2400 445 c-7 -8 -19 -15 -27 -15 -11 0 -13 -7 -9 -26 4 -15 10 -39
13 -55 7 -35 18 -36 65 -4 40 27 58 75 38 100 -16 19 -64 19 -80 0z"/>
<path d="M1848 368 c5 -5 16 -8 23 -6 8 3 3 7 -10 11 -17 4 -21 3 -13 -5z"/>
<path d="M1920 326 c0 -2 7 -7 16 -10 8 -3 12 -2 9 4 -6 10 -25 14 -25 6z"/>
<path d="M2376 2185 c4 -8 10 -15 15 -15 4 0 6 7 3 15 -4 8 -10 15 -15 15 -4
0 -6 -7 -3 -15z"/>
<path d="M2581 2157 c-7 -10 -21 -17 -30 -18 -9 -1 -5 -4 9 -8 29 -9 43 0 38
24 -3 17 -4 17 -17 2z"/>
<path d="M2430 2144 c0 -11 5 -14 16 -10 9 3 21 6 27 6 16 0 -14 20 -30 20 -7
0 -13 -7 -13 -16z"/>
<path d="M2410 2109 c25 -28 50 -33 50 -10 0 8 -60 41 -73 41 -3 0 7 -14 23
-31z"/>
<path d="M2365 2080 c-14 -5 -20 -17 -22 -41 0 -19 -4 -44 -8 -56 -5 -15 -3
-23 4 -23 6 0 11 -7 11 -15 0 -19 9 -19 34 0 19 15 19 15 1 29 -17 12 -16 14
13 31 27 16 49 44 40 49 -2 1 -14 9 -28 18 -15 9 -33 12 -45 8z"/>
<path d="M2498 2032 c-16 -10 -28 -21 -28 -25 0 -5 15 1 34 12 39 25 46 26 46
7 0 -7 11 -21 25 -30 21 -14 25 -14 25 -2 0 16 -47 56 -64 55 -6 0 -23 -8 -38
-17z"/>
</g>
</svg>
